<svg width="308" height="332" viewBox="0 0 308 332" fill="none" xmlns="http://www.w3.org/2000/svg">
<g filter="url(#filter0_d_508_5710)">
<rect width="194" height="188" transform="translate(72 24)" fill="white"/>
<g clip-path="url(#clip0_508_5710)">
<g clip-path="url(#clip1_508_5710)">
<path d="M182.125 84.75L177.25 79.875H165.875C165.444 79.875 165.031 79.7038 164.726 79.399C164.421 79.0943 164.25 78.681 164.25 78.25V68.5C164.25 68.069 164.421 67.6557 164.726 67.351C165.031 67.0462 165.444 66.875 165.875 66.875H180.5C180.931 66.875 181.344 67.0462 181.649 67.351C181.954 67.6557 182.125 68.069 182.125 68.5V84.75Z" stroke="#3F3A64" stroke-width="2.75" stroke-linecap="round" stroke-linejoin="round"/>
<path d="M170.75 86.375V89.625C170.75 90.056 170.579 90.4693 170.274 90.7741C169.969 91.0788 169.556 91.25 169.125 91.25H157.75L152.875 96.125V79.875C152.875 79.444 153.046 79.0307 153.351 78.726C153.656 78.4212 154.069 78.25 154.5 78.25H157.75" stroke="#20AD96" stroke-width="2.75" stroke-linecap="round" stroke-linejoin="round"/>
</g>
</g>
<path d="M125.408 146H124.033V136.211L120.119 144.031H118.877L114.978 136.258V146H113.603V134.281H115.377L119.502 142.586L123.611 134.281H125.408V146ZM130.987 146.156C130.211 146.156 129.513 145.979 128.893 145.625C128.273 145.271 127.783 144.789 127.424 144.18C127.07 143.565 126.893 142.87 126.893 142.094C126.893 141.323 127.07 140.633 127.424 140.023C127.783 139.409 128.273 138.924 128.893 138.57C129.513 138.211 130.211 138.031 130.987 138.031C131.763 138.031 132.458 138.211 133.073 138.57C133.687 138.924 134.171 139.409 134.526 140.023C134.88 140.633 135.057 141.323 135.057 142.094C135.057 142.87 134.88 143.565 134.526 144.18C134.171 144.789 133.687 145.271 133.073 145.625C132.458 145.979 131.763 146.156 130.987 146.156ZM130.979 145C131.505 145 131.976 144.872 132.393 144.617C132.809 144.362 133.138 144.016 133.377 143.578C133.622 143.141 133.744 142.643 133.744 142.086C133.744 141.539 133.622 141.047 133.377 140.609C133.138 140.172 132.809 139.826 132.393 139.57C131.976 139.315 131.505 139.188 130.979 139.188C130.453 139.188 129.979 139.315 129.557 139.57C129.14 139.826 128.809 140.172 128.565 140.609C128.325 141.047 128.205 141.539 128.205 142.086C128.205 142.643 128.325 143.141 128.565 143.578C128.809 144.016 129.14 144.362 129.557 144.617C129.979 144.872 130.453 145 130.979 145ZM137.823 146H136.542V138.188H137.667L137.721 139.734C137.992 139.198 138.372 138.781 138.862 138.484C139.357 138.182 139.924 138.031 140.565 138.031C140.706 138.031 140.849 138.039 140.995 138.055C141.141 138.07 141.286 138.094 141.432 138.125L141.276 139.281C140.989 139.214 140.706 139.18 140.424 139.18C139.914 139.18 139.461 139.305 139.065 139.555C138.674 139.805 138.37 140.148 138.151 140.586C137.932 141.023 137.823 141.526 137.823 142.094V146ZM149.292 145.039C148.323 145.784 147.255 146.156 146.089 146.156C145.276 146.156 144.547 145.974 143.901 145.609C143.255 145.245 142.745 144.75 142.37 144.125C142 143.495 141.815 142.784 141.815 141.992C141.815 141.232 141.987 140.555 142.331 139.961C142.675 139.362 143.146 138.891 143.745 138.547C144.344 138.203 145.024 138.031 145.784 138.031C146.565 138.031 147.253 138.219 147.847 138.594C148.446 138.969 148.912 139.49 149.245 140.156C149.578 140.823 149.745 141.594 149.745 142.469V142.719H143.206C143.3 143.177 143.487 143.576 143.768 143.914C144.055 144.253 144.409 144.516 144.831 144.703C145.253 144.891 145.724 144.984 146.245 144.984C147.141 144.984 147.959 144.69 148.698 144.102L149.292 145.039ZM143.159 141.625H148.534C148.477 141.141 148.326 140.719 148.081 140.359C147.841 139.995 147.529 139.711 147.143 139.508C146.763 139.305 146.334 139.203 145.854 139.203C145.37 139.203 144.933 139.305 144.542 139.508C144.156 139.711 143.841 139.995 143.597 140.359C143.357 140.719 143.211 141.141 143.159 141.625ZM159.347 145.812C158.832 146.042 158.329 146.156 157.839 146.156C157.371 146.156 156.959 146.055 156.605 145.852C156.251 145.643 155.975 145.354 155.777 144.984C155.579 144.609 155.48 144.174 155.48 143.68V139.336H154.113V138.188H155.543V136.234H156.761V138.188H159.097V139.336H156.761V143.445C156.761 143.914 156.886 144.292 157.136 144.578C157.391 144.865 157.725 145.008 158.136 145.008C158.47 145.008 158.803 144.909 159.136 144.711L159.347 145.812ZM160.746 146V134.281H162.027V139.359C162.616 138.474 163.527 138.031 164.762 138.031C165.798 138.031 166.605 138.341 167.183 138.961C167.767 139.576 168.058 140.435 168.058 141.539V146H166.777V141.836C166.777 140.997 166.569 140.346 166.152 139.883C165.741 139.414 165.165 139.18 164.426 139.18C163.681 139.18 163.095 139.417 162.668 139.891C162.241 140.365 162.027 141.013 162.027 141.836V146H160.746ZM176.309 146H175.207L175.121 144.969C174.835 145.339 174.47 145.63 174.028 145.844C173.585 146.052 173.09 146.156 172.543 146.156C171.981 146.156 171.478 146.047 171.035 145.828C170.593 145.604 170.244 145.299 169.988 144.914C169.738 144.529 169.613 144.091 169.613 143.602C169.613 143.086 169.749 142.633 170.02 142.242C170.296 141.846 170.668 141.536 171.137 141.312C171.611 141.089 172.147 140.977 172.746 140.977C173.137 140.977 173.535 141.026 173.942 141.125C174.348 141.219 174.71 141.349 175.028 141.516V141.188C175.028 140.771 174.923 140.417 174.715 140.125C174.507 139.828 174.228 139.602 173.879 139.445C173.53 139.284 173.145 139.203 172.723 139.203C172.358 139.203 171.986 139.271 171.606 139.406C171.225 139.536 170.861 139.74 170.512 140.016L170.09 138.914C170.543 138.622 171.02 138.404 171.52 138.258C172.02 138.107 172.514 138.031 173.004 138.031C173.681 138.031 174.264 138.169 174.754 138.445C175.249 138.716 175.632 139.104 175.903 139.609C176.173 140.109 176.309 140.703 176.309 141.391V146ZM172.77 144.984C173.171 144.984 173.538 144.901 173.871 144.734C174.205 144.568 174.475 144.328 174.684 144.016C174.892 143.698 175.007 143.323 175.028 142.891V142.758C174.741 142.534 174.418 142.362 174.059 142.242C173.705 142.117 173.343 142.055 172.973 142.055C172.395 142.055 171.91 142.195 171.52 142.477C171.134 142.758 170.942 143.115 170.942 143.547C170.942 143.818 171.02 144.062 171.176 144.281C171.337 144.5 171.556 144.672 171.832 144.797C172.108 144.922 172.421 144.984 172.77 144.984ZM185.575 146H184.293V141.641C184.293 140.901 184.083 140.31 183.661 139.867C183.239 139.424 182.679 139.203 181.981 139.203C181.257 139.203 180.668 139.443 180.215 139.922C179.767 140.396 179.543 141.021 179.543 141.797V146H178.262V138.188H179.379L179.426 139.453C179.713 138.995 180.09 138.643 180.559 138.398C181.028 138.154 181.58 138.031 182.215 138.031C183.252 138.031 184.069 138.344 184.668 138.969C185.273 139.594 185.575 140.451 185.575 141.539V146ZM198.443 146H191.403V145.133C192.367 144.31 193.187 143.557 193.864 142.875C194.547 142.193 195.101 141.56 195.528 140.977C195.956 140.393 196.268 139.844 196.466 139.328C196.669 138.812 196.771 138.312 196.771 137.828C196.771 137.323 196.674 136.878 196.482 136.492C196.289 136.102 196.021 135.799 195.677 135.586C195.333 135.367 194.935 135.258 194.482 135.258C193.966 135.258 193.474 135.406 193.005 135.703C192.541 135.995 192.161 136.398 191.864 136.914L191.107 136.062C191.508 135.427 192.026 134.932 192.661 134.578C193.297 134.224 193.979 134.047 194.708 134.047C195.385 134.047 195.984 134.198 196.505 134.5C197.026 134.797 197.435 135.208 197.732 135.734C198.028 136.26 198.177 136.867 198.177 137.555C198.177 138.112 198.073 138.688 197.864 139.281C197.656 139.87 197.346 140.471 196.935 141.086C196.523 141.695 196.013 142.31 195.403 142.93C194.799 143.549 194.101 144.169 193.31 144.789H198.443V146ZM199.927 144.734L200.685 143.648C200.935 144.076 201.287 144.411 201.74 144.656C202.193 144.896 202.695 145.016 203.248 145.016C203.789 145.016 204.266 144.904 204.677 144.68C205.089 144.451 205.409 144.135 205.638 143.734C205.867 143.328 205.982 142.859 205.982 142.328C205.982 141.797 205.867 141.331 205.638 140.93C205.409 140.523 205.089 140.208 204.677 139.984C204.266 139.76 203.792 139.648 203.255 139.648C202.896 139.648 202.557 139.703 202.24 139.812C201.927 139.917 201.643 140.07 201.388 140.273L200.685 139.828L201.201 134.281H206.857V135.5H202.466L202.138 138.836C202.581 138.685 203.055 138.609 203.56 138.609C204.31 138.609 204.971 138.771 205.544 139.094C206.117 139.411 206.565 139.852 206.888 140.414C207.216 140.977 207.38 141.628 207.38 142.367C207.38 143.128 207.208 143.799 206.865 144.383C206.521 144.961 206.044 145.414 205.435 145.742C204.826 146.07 204.123 146.234 203.326 146.234C202.633 146.234 201.992 146.104 201.404 145.844C200.815 145.583 200.323 145.214 199.927 144.734ZM212.357 146.234C211.534 146.234 210.826 145.997 210.232 145.523C209.638 145.044 209.183 144.352 208.865 143.445C208.547 142.534 208.388 141.43 208.388 140.133C208.388 138.841 208.547 137.742 208.865 136.836C209.183 135.93 209.638 135.24 210.232 134.766C210.826 134.286 211.534 134.047 212.357 134.047C213.185 134.047 213.894 134.286 214.482 134.766C215.076 135.24 215.532 135.93 215.849 136.836C216.167 137.742 216.326 138.841 216.326 140.133C216.326 141.43 216.167 142.534 215.849 143.445C215.537 144.352 215.084 145.044 214.49 145.523C213.896 145.997 213.185 146.234 212.357 146.234ZM212.357 145.016C213.164 145.016 213.792 144.586 214.24 143.727C214.693 142.867 214.92 141.669 214.92 140.133C214.92 138.596 214.693 137.401 214.24 136.547C213.792 135.693 213.164 135.266 212.357 135.266C211.555 135.266 210.928 135.693 210.474 136.547C210.021 137.401 209.795 138.596 209.795 140.133C209.795 141.669 210.021 142.867 210.474 143.727C210.928 144.586 211.555 145.016 212.357 145.016ZM224.397 142.641H221.709V145.352H220.568V142.641H217.881V141.609H220.568V138.898H221.709V141.609H224.397V142.641Z" fill="#4A556C"/>
<path d="M120.758 174.234C119.878 174.234 119.065 174.083 118.32 173.781C117.581 173.479 116.938 173.055 116.391 172.508C115.844 171.956 115.419 171.31 115.117 170.57C114.815 169.826 114.664 169.016 114.664 168.141C114.664 167.26 114.815 166.451 115.117 165.711C115.419 164.966 115.844 164.32 116.391 163.773C116.938 163.227 117.581 162.802 118.32 162.5C119.065 162.198 119.878 162.047 120.758 162.047C121.638 162.047 122.448 162.198 123.188 162.5C123.927 162.802 124.57 163.227 125.117 163.773C125.664 164.32 126.089 164.966 126.391 165.711C126.693 166.451 126.844 167.26 126.844 168.141C126.844 169.016 126.693 169.826 126.391 170.57C126.089 171.31 125.664 171.956 125.117 172.508C124.57 173.055 123.927 173.479 123.188 173.781C122.448 174.083 121.638 174.234 120.758 174.234ZM120.758 173.016C121.43 173.016 122.049 172.893 122.617 172.648C123.19 172.404 123.688 172.062 124.109 171.625C124.531 171.182 124.857 170.667 125.086 170.078C125.32 169.484 125.438 168.839 125.438 168.141C125.438 167.443 125.32 166.797 125.086 166.203C124.857 165.609 124.531 165.094 124.109 164.656C123.688 164.214 123.19 163.872 122.617 163.633C122.049 163.388 121.43 163.266 120.758 163.266C120.086 163.266 119.464 163.388 118.891 163.633C118.323 163.872 117.828 164.214 117.406 164.656C116.984 165.094 116.656 165.609 116.422 166.203C116.188 166.797 116.07 167.443 116.07 168.141C116.07 168.839 116.188 169.484 116.422 170.078C116.656 170.672 116.984 171.19 117.406 171.633C117.828 172.07 118.323 172.411 118.891 172.656C119.464 172.896 120.086 173.016 120.758 173.016ZM135.719 174H134.438V169.641C134.438 168.901 134.227 168.31 133.805 167.867C133.383 167.424 132.823 167.203 132.125 167.203C131.401 167.203 130.813 167.443 130.36 167.922C129.912 168.396 129.688 169.021 129.688 169.797V174H128.407V166.188H129.524L129.571 167.453C129.857 166.995 130.235 166.643 130.703 166.398C131.172 166.154 131.724 166.031 132.36 166.031C133.396 166.031 134.214 166.344 134.813 166.969C135.417 167.594 135.719 168.451 135.719 169.539V174ZM139.024 174H137.665V161.969H139.024V174ZM141.798 163.719C141.579 163.719 141.394 163.643 141.243 163.492C141.097 163.336 141.024 163.148 141.024 162.93C141.024 162.716 141.097 162.534 141.243 162.383C141.394 162.232 141.579 162.156 141.798 162.156C142.022 162.156 142.209 162.232 142.36 162.383C142.511 162.534 142.587 162.716 142.587 162.93C142.587 163.148 142.511 163.336 142.36 163.492C142.209 163.643 142.022 163.719 141.798 163.719ZM142.438 174H141.157V166.188H142.438V174ZM151.9 174H150.618V169.641C150.618 168.901 150.407 168.31 149.986 167.867C149.564 167.424 149.004 167.203 148.306 167.203C147.582 167.203 146.993 167.443 146.54 167.922C146.092 168.396 145.868 169.021 145.868 169.797V174H144.587V166.188H145.704L145.751 167.453C146.038 166.995 146.415 166.643 146.884 166.398C147.353 166.154 147.905 166.031 148.54 166.031C149.577 166.031 150.394 166.344 150.993 166.969C151.598 167.594 151.9 168.451 151.9 169.539V174ZM160.697 173.039C159.728 173.784 158.66 174.156 157.494 174.156C156.681 174.156 155.952 173.974 155.306 173.609C154.66 173.245 154.15 172.75 153.775 172.125C153.405 171.495 153.22 170.784 153.22 169.992C153.22 169.232 153.392 168.555 153.736 167.961C154.08 167.362 154.551 166.891 155.15 166.547C155.749 166.203 156.429 166.031 157.189 166.031C157.97 166.031 158.658 166.219 159.252 166.594C159.851 166.969 160.317 167.49 160.65 168.156C160.983 168.823 161.15 169.594 161.15 170.469V170.719H154.611C154.705 171.177 154.892 171.576 155.173 171.914C155.46 172.253 155.814 172.516 156.236 172.703C156.658 172.891 157.129 172.984 157.65 172.984C158.546 172.984 159.364 172.69 160.103 172.102L160.697 173.039ZM154.564 169.625H159.939C159.882 169.141 159.731 168.719 159.486 168.359C159.246 167.995 158.934 167.711 158.548 167.508C158.168 167.305 157.739 167.203 157.259 167.203C156.775 167.203 156.338 167.305 155.947 167.508C155.561 167.711 155.246 167.995 155.002 168.359C154.762 168.719 154.616 169.141 154.564 169.625ZM165.674 172.859L166.338 171.805C166.677 172.081 167.015 172.31 167.354 172.492C167.692 172.674 168.036 172.81 168.385 172.898C168.739 172.987 169.099 173.031 169.463 173.031C169.994 173.031 170.458 172.943 170.854 172.766C171.255 172.589 171.567 172.344 171.791 172.031C172.015 171.714 172.127 171.349 172.127 170.938C172.127 170.49 172 170.12 171.744 169.828C171.494 169.531 171.169 169.279 170.768 169.07C170.367 168.862 169.94 168.664 169.487 168.477C169.106 168.315 168.729 168.143 168.354 167.961C167.979 167.779 167.638 167.568 167.33 167.328C167.028 167.083 166.786 166.789 166.604 166.445C166.421 166.102 166.33 165.688 166.33 165.203C166.33 164.583 166.487 164.036 166.799 163.562C167.112 163.089 167.544 162.719 168.096 162.453C168.653 162.188 169.294 162.055 170.018 162.055C170.507 162.055 171 162.12 171.494 162.25C171.989 162.375 172.468 162.56 172.932 162.805L172.369 163.93C172.005 163.716 171.622 163.552 171.221 163.438C170.825 163.323 170.434 163.266 170.049 163.266C169.591 163.266 169.187 163.344 168.838 163.5C168.494 163.651 168.224 163.865 168.026 164.141C167.833 164.411 167.737 164.729 167.737 165.094C167.737 165.5 167.854 165.841 168.088 166.117C168.328 166.393 168.635 166.633 169.01 166.836C169.39 167.034 169.791 167.227 170.213 167.414C170.614 167.591 171.01 167.779 171.401 167.977C171.796 168.169 172.153 168.398 172.471 168.664C172.794 168.924 173.052 169.237 173.244 169.602C173.437 169.966 173.533 170.406 173.533 170.922C173.533 171.583 173.367 172.164 173.033 172.664C172.7 173.159 172.231 173.544 171.627 173.82C171.028 174.096 170.325 174.234 169.518 174.234C168.809 174.234 168.135 174.12 167.494 173.891C166.854 173.661 166.247 173.318 165.674 172.859ZM182.096 173.039C181.127 173.784 180.06 174.156 178.893 174.156C178.081 174.156 177.351 173.974 176.706 173.609C176.06 173.245 175.549 172.75 175.174 172.125C174.805 171.495 174.62 170.784 174.62 169.992C174.62 169.232 174.792 168.555 175.135 167.961C175.479 167.362 175.95 166.891 176.549 166.547C177.148 166.203 177.828 166.031 178.588 166.031C179.37 166.031 180.057 166.219 180.651 166.594C181.25 166.969 181.716 167.49 182.049 168.156C182.383 168.823 182.549 169.594 182.549 170.469V170.719H176.01C176.104 171.177 176.292 171.576 176.573 171.914C176.859 172.253 177.213 172.516 177.635 172.703C178.057 172.891 178.529 172.984 179.049 172.984C179.945 172.984 180.763 172.69 181.502 172.102L182.096 173.039ZM175.963 169.625H181.338C181.281 169.141 181.13 168.719 180.885 168.359C180.646 167.995 180.333 167.711 179.948 167.508C179.568 167.305 179.138 167.203 178.659 167.203C178.174 167.203 177.737 167.305 177.346 167.508C176.961 167.711 176.646 167.995 176.401 168.359C176.161 168.719 176.016 169.141 175.963 169.625ZM183.487 173.32L183.823 172.117C184.011 172.294 184.224 172.448 184.464 172.578C184.703 172.708 184.956 172.81 185.222 172.883C185.487 172.951 185.755 172.984 186.026 172.984C186.511 172.984 186.901 172.878 187.198 172.664C187.495 172.451 187.643 172.172 187.643 171.828C187.643 171.578 187.565 171.372 187.409 171.211C187.258 171.044 187.058 170.901 186.808 170.781C186.558 170.661 186.289 170.547 186.003 170.438C185.654 170.302 185.308 170.148 184.964 169.977C184.62 169.805 184.334 169.578 184.104 169.297C183.88 169.016 183.768 168.646 183.768 168.188C183.768 167.75 183.878 167.37 184.097 167.047C184.315 166.724 184.62 166.474 185.011 166.297C185.406 166.12 185.86 166.031 186.37 166.031C187.141 166.031 187.899 166.224 188.643 166.609L188.261 167.766C188.094 167.656 187.901 167.56 187.683 167.477C187.464 167.388 187.24 167.32 187.011 167.273C186.781 167.227 186.565 167.203 186.362 167.203C185.982 167.203 185.675 167.292 185.44 167.469C185.206 167.641 185.089 167.872 185.089 168.164C185.089 168.331 185.136 168.484 185.229 168.625C185.328 168.76 185.492 168.896 185.722 169.031C185.951 169.167 186.268 169.318 186.675 169.484C187.034 169.63 187.388 169.797 187.737 169.984C188.086 170.167 188.375 170.404 188.604 170.695C188.839 170.982 188.956 171.357 188.956 171.82C188.956 172.279 188.834 172.685 188.589 173.039C188.349 173.388 188.013 173.661 187.581 173.859C187.154 174.057 186.659 174.156 186.097 174.156C185.164 174.156 184.294 173.878 183.487 173.32ZM189.964 173.32L190.3 172.117C190.488 172.294 190.701 172.448 190.941 172.578C191.18 172.708 191.433 172.81 191.698 172.883C191.964 172.951 192.232 172.984 192.503 172.984C192.988 172.984 193.378 172.878 193.675 172.664C193.972 172.451 194.12 172.172 194.12 171.828C194.12 171.578 194.042 171.372 193.886 171.211C193.735 171.044 193.534 170.901 193.284 170.781C193.034 170.661 192.766 170.547 192.48 170.438C192.131 170.302 191.784 170.148 191.441 169.977C191.097 169.805 190.81 169.578 190.581 169.297C190.357 169.016 190.245 168.646 190.245 168.188C190.245 167.75 190.355 167.37 190.573 167.047C190.792 166.724 191.097 166.474 191.488 166.297C191.883 166.12 192.336 166.031 192.847 166.031C193.618 166.031 194.376 166.224 195.12 166.609L194.738 167.766C194.571 167.656 194.378 167.56 194.159 167.477C193.941 167.388 193.717 167.32 193.488 167.273C193.258 167.227 193.042 167.203 192.839 167.203C192.459 167.203 192.152 167.292 191.917 167.469C191.683 167.641 191.566 167.872 191.566 168.164C191.566 168.331 191.613 168.484 191.706 168.625C191.805 168.76 191.969 168.896 192.198 169.031C192.428 169.167 192.745 169.318 193.152 169.484C193.511 169.63 193.865 169.797 194.214 169.984C194.563 170.167 194.852 170.404 195.081 170.695C195.316 170.982 195.433 171.357 195.433 171.82C195.433 172.279 195.31 172.685 195.066 173.039C194.826 173.388 194.49 173.661 194.058 173.859C193.631 174.057 193.136 174.156 192.573 174.156C191.641 174.156 190.771 173.878 189.964 173.32ZM197.66 163.719C197.441 163.719 197.256 163.643 197.105 163.492C196.959 163.336 196.886 163.148 196.886 162.93C196.886 162.716 196.959 162.534 197.105 162.383C197.256 162.232 197.441 162.156 197.66 162.156C197.884 162.156 198.071 162.232 198.222 162.383C198.373 162.534 198.449 162.716 198.449 162.93C198.449 163.148 198.373 163.336 198.222 163.492C198.071 163.643 197.884 163.719 197.66 163.719ZM198.3 174H197.019V166.188H198.3V174ZM203.918 174.156C203.142 174.156 202.444 173.979 201.824 173.625C201.204 173.271 200.715 172.789 200.355 172.18C200.001 171.565 199.824 170.87 199.824 170.094C199.824 169.323 200.001 168.633 200.355 168.023C200.715 167.409 201.204 166.924 201.824 166.57C202.444 166.211 203.142 166.031 203.918 166.031C204.694 166.031 205.389 166.211 206.004 166.57C206.618 166.924 207.103 167.409 207.457 168.023C207.811 168.633 207.988 169.323 207.988 170.094C207.988 170.87 207.811 171.565 207.457 172.18C207.103 172.789 206.618 173.271 206.004 173.625C205.389 173.979 204.694 174.156 203.918 174.156ZM203.91 173C204.436 173 204.907 172.872 205.324 172.617C205.741 172.362 206.069 172.016 206.308 171.578C206.553 171.141 206.676 170.643 206.676 170.086C206.676 169.539 206.553 169.047 206.308 168.609C206.069 168.172 205.741 167.826 205.324 167.57C204.907 167.315 204.436 167.188 203.91 167.188C203.384 167.188 202.91 167.315 202.488 167.57C202.071 167.826 201.741 168.172 201.496 168.609C201.256 169.047 201.137 169.539 201.137 170.086C201.137 170.643 201.256 171.141 201.496 171.578C201.741 172.016 202.071 172.362 202.488 172.617C202.91 172.872 203.384 173 203.91 173ZM216.785 174H215.504V169.641C215.504 168.901 215.293 168.31 214.871 167.867C214.449 167.424 213.889 167.203 213.192 167.203C212.468 167.203 211.879 167.443 211.426 167.922C210.978 168.396 210.754 169.021 210.754 169.797V174H209.473V166.188H210.59L210.637 167.453C210.923 166.995 211.301 166.643 211.77 166.398C212.238 166.154 212.791 166.031 213.426 166.031C214.462 166.031 215.28 166.344 215.879 166.969C216.483 167.594 216.785 168.451 216.785 169.539V174ZM218.184 173.32L218.52 172.117C218.707 172.294 218.921 172.448 219.161 172.578C219.4 172.708 219.653 172.81 219.918 172.883C220.184 172.951 220.452 172.984 220.723 172.984C221.207 172.984 221.598 172.878 221.895 172.664C222.192 172.451 222.34 172.172 222.34 171.828C222.34 171.578 222.262 171.372 222.106 171.211C221.955 171.044 221.754 170.901 221.504 170.781C221.254 170.661 220.986 170.547 220.7 170.438C220.351 170.302 220.004 170.148 219.661 169.977C219.317 169.805 219.03 169.578 218.801 169.297C218.577 169.016 218.465 168.646 218.465 168.188C218.465 167.75 218.575 167.37 218.793 167.047C219.012 166.724 219.317 166.474 219.707 166.297C220.103 166.12 220.556 166.031 221.067 166.031C221.838 166.031 222.596 166.224 223.34 166.609L222.957 167.766C222.791 167.656 222.598 167.56 222.379 167.477C222.161 167.388 221.937 167.32 221.707 167.273C221.478 167.227 221.262 167.203 221.059 167.203C220.679 167.203 220.372 167.292 220.137 167.469C219.903 167.641 219.786 167.872 219.786 168.164C219.786 168.331 219.832 168.484 219.926 168.625C220.025 168.76 220.189 168.896 220.418 169.031C220.648 169.167 220.965 169.318 221.372 169.484C221.731 169.63 222.085 169.797 222.434 169.984C222.783 170.167 223.072 170.404 223.301 170.695C223.536 170.982 223.653 171.357 223.653 171.82C223.653 172.279 223.53 172.685 223.286 173.039C223.046 173.388 222.71 173.661 222.278 173.859C221.851 174.057 221.356 174.156 220.793 174.156C219.861 174.156 218.991 173.878 218.184 173.32Z" fill="#041434"/>
</g>
<defs>
<filter id="filter0_d_508_5710" x="0" y="0" width="338" height="332" filterUnits="userSpaceOnUse" color-interpolation-filters="sRGB">
<feFlood flood-opacity="0" result="BackgroundImageFix"/>
<feColorMatrix in="SourceAlpha" type="matrix" values="0 0 0 0 0 0 0 0 0 0 0 0 0 0 0 0 0 0 127 0" result="hardAlpha"/>
<feOffset dy="48"/>
<feGaussianBlur stdDeviation="36"/>
<feColorMatrix type="matrix" values="0 0 0 0 0.6958 0 0 0 0 0.73116 0 0 0 0 0.7842 0 0 0 0.12 0"/>
<feBlend mode="normal" in2="BackgroundImageFix" result="effect1_dropShadow_508_5710"/>
<feBlend mode="normal" in="SourceGraphic" in2="effect1_dropShadow_508_5710" result="shape"/>
</filter>
<clipPath id="clip0_508_5710">
<rect width="36" height="36" fill="white" transform="translate(151 62)"/>
</clipPath>
<clipPath id="clip1_508_5710">
<rect width="39" height="39" fill="white" transform="translate(148 62)"/>
</clipPath>
</defs>
</svg>
