<svg width="149" height="28" viewBox="0 0 149 28" fill="none" xmlns="http://www.w3.org/2000/svg">
<path d="M16.2618 3.01221C17.8963 3.01221 19.4076 3.88149 20.2295 5.29444L24.1002 11.9498C24.9302 13.3764 24.9302 15.1386 24.1002 16.5652L20.2295 23.2206C19.4076 24.6335 17.8963 25.5028 16.2618 25.5028H8.46089C6.82633 25.5028 5.3151 24.6335 4.49329 23.2206L0.622308 16.5652C-0.207437 15.1386 -0.207435 13.3764 0.62231 11.9498L4.49329 5.29444C5.3151 3.88149 6.82633 3.01221 8.46089 3.01221H16.2618Z" fill="#20AD96"/>
<path d="M7.83154 19.4784L10.3508 16.9592H16.229C16.4517 16.9592 16.6653 16.8707 16.8228 16.7132C16.9803 16.5557 17.0687 16.3421 17.0687 16.1194V11.081C17.0687 10.8582 16.9803 10.6447 16.8228 10.4872C16.6653 10.3297 16.4517 10.2412 16.229 10.2412H8.67128C8.44857 10.2412 8.23499 10.3297 8.07749 10.4872C7.92002 10.6447 7.83154 10.8582 7.83154 11.081V19.4784Z" stroke="white" stroke-width="1.60647" stroke-linecap="round" stroke-linejoin="round"/>
<path d="M36.4158 19.4783H34.0647V8.02785H36.4158V12.8141H41.3701V8.02785H43.7212V19.4783H41.3701V14.8676H36.4158V19.4783ZM51.7752 19.4783H49.8669L49.7525 18.5699C49.4725 18.9058 49.1263 19.1679 48.7143 19.3562C48.302 19.5394 47.849 19.631 47.3554 19.631C46.8211 19.631 46.3451 19.5292 45.9279 19.3256C45.5106 19.117 45.1825 18.832 44.9431 18.4707C44.7039 18.1042 44.5845 17.6895 44.5845 17.2264C44.5845 16.7378 44.7142 16.3078 44.9738 15.9363C45.2333 15.5648 45.5895 15.2747 46.0425 15.0661C46.5004 14.8523 47.0195 14.7454 47.5996 14.7454C47.9406 14.7454 48.2815 14.7836 48.6225 14.8599C48.9687 14.9363 49.2892 15.0432 49.5844 15.1806V14.9821C49.5844 14.6767 49.4978 14.4146 49.3249 14.1958C49.1569 13.9719 48.9229 13.7989 48.6225 13.6767C48.3275 13.5546 47.9966 13.4935 47.6303 13.4935C47.2791 13.4935 46.9305 13.5495 46.5845 13.6615C46.2435 13.7734 45.9279 13.9414 45.6379 14.1653L45.0425 12.4935C45.5564 12.2289 46.0755 12.0304 46.5998 11.8981C47.1289 11.7607 47.6404 11.692 48.1342 11.692C48.8771 11.692 49.5207 11.8396 50.0653 12.1347C50.6099 12.4248 51.0298 12.837 51.325 13.3714C51.6252 13.9007 51.7752 14.5292 51.7752 15.2569V19.4783ZM47.8364 17.9439C48.1263 17.9439 48.4038 17.8803 48.6685 17.7531C48.933 17.6259 49.1468 17.4528 49.3097 17.234C49.4776 17.0152 49.5667 16.7734 49.5768 16.5088V16.4554C49.3529 16.3027 49.1035 16.1857 48.8287 16.1042C48.5591 16.0177 48.2842 15.9745 48.0042 15.9745C47.5869 15.9745 47.246 16.0661 46.9813 16.2493C46.7166 16.4325 46.5845 16.6691 46.5845 16.9592C46.5845 17.1475 46.6379 17.318 46.7448 17.4707C46.8566 17.6182 47.0068 17.7353 47.1952 17.8218C47.3833 17.9032 47.5972 17.9439 47.8364 17.9439ZM55.0584 23.2951H52.86V11.8447H54.7835L54.898 12.8828C55.2237 12.5113 55.6131 12.2213 56.0661 12.0126C56.5239 11.7989 57.0227 11.692 57.5621 11.692C58.2645 11.692 58.8879 11.865 59.4324 12.2111C59.977 12.552 60.407 13.0228 60.7224 13.6233C61.0381 14.2187 61.1957 14.8981 61.1957 15.6615C61.1957 16.4198 61.0381 17.0992 60.7224 17.6997C60.407 18.3002 59.977 18.7735 59.4324 19.1195C58.8879 19.4605 58.2645 19.631 57.5621 19.631C57.0635 19.631 56.6004 19.5419 56.1729 19.3638C55.7504 19.1806 55.3789 18.9287 55.0584 18.6081V23.2951ZM57.0049 17.6615C57.3866 17.6615 57.7226 17.5775 58.0125 17.4096C58.3027 17.2366 58.5292 16.9999 58.6921 16.6996C58.8599 16.3943 58.9439 16.0482 58.9439 15.6615C58.9439 15.2696 58.8599 14.9236 58.6921 14.6233C58.5292 14.3231 58.3027 14.0864 58.0125 13.9134C57.7226 13.7404 57.3892 13.6538 57.0125 13.6538C56.6563 13.6538 56.3358 13.7327 56.0508 13.8905C55.7657 14.0432 55.5341 14.2569 55.356 14.5317C55.1831 14.8065 55.0837 15.122 55.0584 15.4783V15.86C55.0837 16.206 55.1831 16.5165 55.356 16.7913C55.5291 17.061 55.7581 17.2747 56.0432 17.4325C56.3281 17.5852 56.6486 17.6615 57.0049 17.6615ZM64.1583 23.2951H61.9598V11.8447H63.8834L63.998 12.8828C64.3237 12.5113 64.7129 12.2213 65.1659 12.0126C65.624 11.7989 66.1226 11.692 66.6622 11.692C67.3644 11.692 67.9879 11.865 68.5323 12.2111C69.0769 12.552 69.5068 13.0228 69.8225 13.6233C70.138 14.2187 70.2958 14.8981 70.2958 15.6615C70.2958 16.4198 70.138 17.0992 69.8225 17.6997C69.5068 18.3002 69.0769 18.7735 68.5323 19.1195C67.9879 19.4605 67.3644 19.631 66.6622 19.631C66.1633 19.631 65.7003 19.5419 65.2728 19.3638C64.8505 19.1806 64.479 18.9287 64.1583 18.6081V23.2951ZM66.1049 17.6615C66.4865 17.6615 66.8224 17.5775 67.1126 17.4096C67.4025 17.2366 67.6291 16.9999 67.7919 16.6996C67.9598 16.3943 68.0437 16.0482 68.0437 15.6615C68.0437 15.2696 67.9598 14.9236 67.7919 14.6233C67.6291 14.3231 67.4025 14.0864 67.1126 13.9134C66.8224 13.7404 66.4891 13.6538 66.1125 13.6538C65.7563 13.6538 65.4356 13.7327 65.1507 13.8905C64.8657 14.0432 64.6342 14.2569 64.4561 14.5317C64.283 14.8065 64.1838 15.122 64.1583 15.4783V15.86C64.1838 16.206 64.283 16.5165 64.4561 16.7913C64.629 17.061 64.8581 17.2747 65.143 17.4325C65.428 17.5852 65.7487 17.6615 66.1049 17.6615ZM74.8078 23.2951H72.472L74.0598 19.4707L70.2046 11.8447H72.678L75.0979 16.9745L77.2201 11.8447H79.5483L74.8078 23.2951ZM92.9084 18.0432C92.3741 18.5623 91.7403 18.9694 91.0076 19.2646C90.2748 19.5597 89.4782 19.7073 88.6184 19.7073C87.7481 19.7073 86.9464 19.5597 86.2137 19.2646C85.4809 18.9643 84.8422 18.547 84.2976 18.0126C83.7582 17.4732 83.3383 16.8421 83.0381 16.1195C82.7379 15.3968 82.5877 14.608 82.5877 13.7531C82.5877 12.8981 82.7379 12.1093 83.0381 11.3866C83.3383 10.6589 83.7582 10.0279 84.2976 9.49351C84.8422 8.95914 85.4809 8.54439 86.2137 8.24922C86.9464 7.94897 87.7481 7.79883 88.6184 7.79883C89.4732 7.79883 90.2646 7.94642 90.9923 8.24159C91.7251 8.53676 92.3588 8.94643 92.8932 9.4706L91.252 11.1195C90.9313 10.7276 90.5393 10.4197 90.0762 10.1958C89.6182 9.9668 89.1196 9.85228 88.58 9.85228C88.0662 9.85228 87.5902 9.95152 87.1527 10.15C86.7201 10.3434 86.341 10.6182 86.0153 10.9744C85.6896 11.3256 85.4376 11.7378 85.2594 12.2111C85.0813 12.6844 84.9924 13.1958 84.9924 13.7454C84.9924 14.3052 85.0813 14.8218 85.2594 15.2951C85.4376 15.7684 85.6896 16.1831 86.0153 16.5393C86.341 16.8905 86.7201 17.1653 87.1527 17.3638C87.5902 17.5572 88.0662 17.6539 88.58 17.6539C89.1196 17.6539 89.6182 17.5419 90.0762 17.318C90.5343 17.089 90.9237 16.7785 91.2441 16.3867L92.9084 18.0432ZM97.2831 19.631C96.4993 19.631 95.7971 19.4605 95.1762 19.1195C94.5553 18.7735 94.0667 18.3027 93.7105 17.7073C93.3595 17.1068 93.1838 16.4248 93.1838 15.6615C93.1838 14.9032 93.3595 14.2264 93.7105 13.6309C94.0667 13.0304 94.5553 12.5571 95.1762 12.2111C95.7971 11.865 96.4993 11.692 97.2831 11.692C98.0668 11.692 98.764 11.865 99.3747 12.2111C99.9904 12.5571 100.474 13.0304 100.825 13.6309C101.181 14.2264 101.359 14.9032 101.359 15.6615C101.359 16.4248 101.181 17.1068 100.825 17.7073C100.474 18.3027 99.9904 18.7735 99.3747 19.1195C98.764 19.4605 98.0668 19.631 97.2831 19.631ZM97.2754 17.6691C97.6266 17.6691 97.9395 17.5826 98.2144 17.4096C98.4943 17.2315 98.713 16.9923 98.8709 16.692C99.0337 16.3867 99.115 16.0381 99.115 15.6462C99.115 15.2696 99.0337 14.9312 98.8709 14.6309C98.713 14.3307 98.4943 14.094 98.2144 13.921C97.9395 13.7429 97.6266 13.6538 97.2754 13.6538C96.9192 13.6538 96.6011 13.7429 96.3212 13.921C96.0465 14.094 95.8276 14.3307 95.6647 14.6309C95.5069 14.9312 95.428 15.2696 95.428 15.6462C95.428 16.0381 95.5069 16.3867 95.6647 16.692C95.8276 16.9923 96.0465 17.2315 96.3212 17.4096C96.6011 17.5826 96.9192 17.6691 97.2754 17.6691ZM108.94 19.4783H107.032L106.917 18.5699C106.637 18.9058 106.291 19.1679 105.879 19.3562C105.467 19.5394 105.014 19.631 104.52 19.631C103.986 19.631 103.51 19.5292 103.093 19.3256C102.676 19.117 102.347 18.832 102.108 18.4707C101.869 18.1042 101.749 17.6895 101.749 17.2264C101.749 16.7378 101.879 16.3078 102.139 15.9363C102.398 15.5648 102.754 15.2747 103.207 15.0661C103.665 14.8523 104.184 14.7454 104.765 14.7454C105.106 14.7454 105.447 14.7836 105.788 14.8599C106.133 14.9363 106.454 15.0432 106.749 15.1806V14.9821C106.749 14.6767 106.663 14.4146 106.49 14.1958C106.322 13.9719 106.088 13.7989 105.788 13.6767C105.492 13.5546 105.162 13.4935 104.795 13.4935C104.444 13.4935 104.095 13.5495 103.749 13.6615C103.408 13.7734 103.093 13.9414 102.803 14.1653L102.207 12.4935C102.721 12.2289 103.24 12.0304 103.765 11.8981C104.294 11.7607 104.805 11.692 105.299 11.692C106.042 11.692 106.686 11.8396 107.23 12.1347C107.775 12.4248 108.195 12.837 108.49 13.3714C108.79 13.9007 108.94 14.5292 108.94 15.2569V19.4783ZM105.001 17.9439C105.291 17.9439 105.569 17.8803 105.833 17.7531C106.098 17.6259 106.312 17.4528 106.474 17.234C106.643 17.0152 106.732 16.7734 106.742 16.5088V16.4554C106.518 16.3027 106.268 16.1857 105.994 16.1042C105.724 16.0177 105.449 15.9745 105.169 15.9745C104.752 15.9745 104.411 16.0661 104.146 16.2493C103.882 16.4325 103.749 16.6691 103.749 16.9592C103.749 17.1475 103.803 17.318 103.91 17.4707C104.022 17.6182 104.172 17.7353 104.36 17.8218C104.548 17.9032 104.762 17.9439 105.001 17.9439ZM116.788 18.2646C116.417 18.692 115.961 19.0279 115.422 19.2722C114.882 19.5114 114.29 19.631 113.643 19.631C112.859 19.631 112.157 19.4605 111.536 19.1195C110.921 18.7735 110.434 18.3002 110.078 17.6997C109.727 17.0992 109.551 16.4198 109.551 15.6615C109.551 14.8981 109.727 14.2187 110.078 13.6233C110.434 13.0228 110.921 12.552 111.536 12.2111C112.157 11.865 112.859 11.692 113.643 11.692C114.284 11.692 114.875 11.8116 115.414 12.0508C115.954 12.29 116.409 12.6207 116.781 13.0431L115.491 14.3943C115.292 14.1653 115.04 13.9872 114.735 13.8599C114.435 13.7276 114.119 13.6615 113.788 13.6615C113.407 13.6615 113.066 13.748 112.765 13.921C112.465 14.089 112.228 14.3231 112.055 14.6233C111.882 14.9185 111.796 15.2595 111.796 15.6462C111.796 16.0381 111.882 16.3867 112.055 16.692C112.228 16.9974 112.465 17.2366 112.765 17.4096C113.066 17.5775 113.407 17.6615 113.788 17.6615C114.119 17.6615 114.437 17.5979 114.742 17.4707C115.048 17.3383 115.297 17.1577 115.491 16.9287L116.788 18.2646ZM117.506 19.4783V8.02785H119.697V12.7454C120.247 12.0431 121.036 11.692 122.064 11.692C123.026 11.692 123.776 11.9897 124.316 12.5851C124.855 13.1755 125.125 14.0024 125.125 15.0661V19.4783H122.934V15.6462C122.934 15.0101 122.794 14.519 122.514 14.1729C122.234 13.8269 121.842 13.6538 121.339 13.6538C120.824 13.6538 120.422 13.8294 120.132 14.1805C119.842 14.5317 119.697 15.0202 119.697 15.6462V19.4783H117.506ZM127.316 10.0202C127.026 10.0202 126.782 9.91844 126.583 9.71488C126.385 9.51132 126.286 9.26449 126.286 8.97442C126.286 8.68433 126.385 8.44007 126.583 8.24159C126.782 8.03803 127.026 7.93624 127.316 7.93624C127.611 7.93624 127.858 8.03803 128.057 8.24159C128.26 8.44007 128.362 8.68433 128.362 8.97442C128.362 9.26449 128.26 9.51132 128.057 9.71488C127.858 9.91844 127.611 10.0202 127.316 10.0202ZM128.415 19.4783H126.225V11.8447H128.415V19.4783ZM137.294 19.4783H135.103V15.5699C135.103 14.9745 134.961 14.5088 134.676 14.1729C134.396 13.832 134.012 13.6615 133.523 13.6615C133.014 13.6615 132.61 13.8396 132.309 14.1958C132.014 14.547 131.867 15.0253 131.867 15.6309V19.4783H129.676V11.8447H131.447L131.523 13.066C131.798 12.6182 132.156 12.2772 132.599 12.0431C133.042 11.809 133.564 11.692 134.164 11.692C135.136 11.692 135.9 11.9923 136.454 12.5928C137.014 13.1882 137.294 14.0126 137.294 15.0661V19.4783ZM141.501 19.5699C140.814 19.5699 140.198 19.3994 139.653 19.0584C139.109 18.7124 138.681 18.2442 138.371 17.6539C138.06 17.0584 137.905 16.3841 137.905 15.6309C137.905 14.8727 138.06 14.1984 138.371 13.608C138.681 13.0177 139.109 12.552 139.653 12.2111C140.198 11.865 140.816 11.692 141.508 11.692C142.048 11.692 142.542 11.7989 142.989 12.0126C143.442 12.2213 143.831 12.5113 144.157 12.8828L144.256 11.8447H146.18V19.2646C146.18 20.1094 145.994 20.8448 145.623 21.4707C145.256 22.1017 144.737 22.5878 144.066 22.9288C143.394 23.2748 142.608 23.4479 141.707 23.4479C140.455 23.4479 139.32 23.0559 138.302 22.2722L139.188 20.486C139.865 21.1526 140.654 21.486 141.554 21.486C142.038 21.486 142.46 21.3892 142.821 21.1958C143.188 21.0024 143.473 20.7328 143.676 20.3868C143.885 20.0406 143.989 19.6386 143.989 19.1806V18.5546C143.674 18.8702 143.305 19.1195 142.882 19.3027C142.46 19.4809 142 19.5699 141.501 19.5699ZM142.066 17.6157C142.422 17.6157 142.745 17.5394 143.035 17.3867C143.325 17.2289 143.557 17.0126 143.73 16.7378C143.903 16.4579 143.989 16.1424 143.989 15.7913V15.463C143.989 15.1119 143.9 14.7989 143.722 14.5241C143.549 14.2493 143.318 14.0355 143.027 13.8828C142.743 13.7251 142.422 13.6462 142.066 13.6462C141.699 13.6462 141.371 13.7327 141.081 13.9057C140.791 14.0788 140.562 14.3154 140.394 14.6157C140.226 14.9108 140.142 15.2493 140.142 15.6309C140.142 16.0126 140.226 16.3536 140.394 16.6538C140.562 16.9541 140.791 17.1907 141.081 17.3638C141.371 17.5317 141.699 17.6157 142.066 17.6157Z" fill="#333461"/>
</svg>
